<svg width="174" height="32" viewBox="0 0 174 32" fill="none" xmlns="http://www.w3.org/2000/svg">
<g clip-path="url(#clip0_1_911)">
<path d="M16.3288 1.65308C16.3287 1.50239 16.2951 1.35353 16.2304 1.21691C16.1656 1.0803 16.0713 0.959234 15.9539 0.862187C15.8365 0.765139 15.6989 0.694454 15.5508 0.655077C15.4027 0.6157 15.2477 0.608582 15.0965 0.634222C13.8193 0.869801 12.6301 1.43791 11.6529 2.27918C10.6758 3.12046 9.9466 4.20402 9.54159 5.41667L5.97667 15.914H2.05966C1.72415 15.9131 1.40186 16.0424 1.16286 16.2736C0.923862 16.5049 0.787466 16.8195 0.783325 17.1489L0.783325 30.181C0.783385 30.3321 0.81705 30.4814 0.881966 30.6184C0.946882 30.7553 1.04148 30.8767 1.15915 30.9741C1.27682 31.0714 1.41472 31.1423 1.5632 31.1819C1.71169 31.2214 1.86717 31.2286 2.01879 31.203C3.30667 30.9665 4.50615 30.3944 5.49169 29.5465C6.47723 28.6986 7.21259 27.6062 7.62081 26.3835L11.1732 15.9201H16.3665L16.3288 1.65308Z" fill="#001D3D"/>
<path d="M34.5462 21.0203C33.5183 21.0203 32.5135 21.3197 31.6589 21.8806C30.8043 22.4415 30.1382 23.2387 29.745 24.1715C29.3518 25.1042 29.2491 26.1305 29.4498 27.1206C29.6506 28.1107 30.1458 29.02 30.8729 29.7336C31.5999 30.4473 32.5261 30.9331 33.5344 31.1297C34.5426 31.3262 35.5875 31.2247 36.537 30.838C37.4865 30.4512 38.2979 29.7966 38.8685 28.9569C39.4391 28.1173 39.7433 27.1302 39.7427 26.1207C39.7427 25.4507 39.6083 24.7872 39.3471 24.1681C39.0859 23.5491 38.7031 22.9867 38.2205 22.5131C37.7379 22.0394 37.165 21.6638 36.5346 21.4076C35.9041 21.1515 35.2285 21.0199 34.5462 21.0203Z" fill="#93C7E7"/>
<path d="M31.9057 1.65276C31.9055 1.50269 31.8721 1.35446 31.8077 1.21835C31.7433 1.08225 31.6495 0.961541 31.5329 0.864601C31.4162 0.767661 31.2795 0.696814 31.1322 0.656977C30.9848 0.617141 30.8304 0.609269 30.6797 0.633908C29.4026 0.869486 28.2133 1.43759 27.2362 2.27887C26.259 3.12014 25.5298 4.20371 25.1248 5.41635L21.5599 15.9137H16.3666V30.1807C16.3666 30.3318 16.4003 30.4811 16.4652 30.618C16.5301 30.755 16.6247 30.8764 16.7424 30.9738C16.8601 31.0711 16.998 31.142 17.1465 31.1815C17.2949 31.2211 17.4504 31.2283 17.602 31.2027C18.8899 30.9662 20.0894 30.3941 21.0749 29.5462C22.0605 28.6983 22.7958 27.6059 23.2041 26.3832L26.7564 15.9198H30.6703C30.8382 15.9198 31.0044 15.8873 31.1594 15.8241C31.3145 15.7609 31.4553 15.6683 31.5739 15.5516C31.6925 15.4349 31.7864 15.2963 31.8504 15.1439C31.9143 14.9914 31.947 14.8281 31.9466 14.6632L31.9057 1.65276Z" fill="#001D3D"/>
<path d="M69.0006 10.9026C68.0139 10.8943 67.0387 11.1105 66.1514 11.5342C65.264 11.9579 64.4886 12.5776 63.8858 13.3448C62.7509 11.7826 60.8679 10.9026 58.6107 10.9026C57.2098 10.8893 55.8445 11.3359 54.7314 12.1716V10.9119H50.7861V26.4572H54.744V17.9482C54.744 15.6573 55.8946 14.3976 57.9851 14.3976C60.0757 14.3976 61.2011 15.6573 61.2011 17.9482V26.4572H65.1307V17.9482C65.1307 15.6573 66.2844 14.3976 68.375 14.3976C70.4655 14.3976 71.5878 15.6573 71.5878 17.9482V26.4572H75.5205V17.5036C75.5205 13.4899 72.9647 10.9026 69.0131 10.9026" fill="#001D3D"/>
<path d="M86.1025 10.9026C81.5599 10.9026 78.2622 14.1722 78.2622 18.6799C78.2622 23.277 81.431 26.4849 85.9705 26.4849C90.5917 26.4849 93.9428 23.203 93.9428 18.6799C93.9428 14.1567 90.6451 10.9026 86.1025 10.9026ZM85.9768 23.027C84.1692 23.027 82.2358 21.8846 82.2358 18.6799C82.2358 16.6885 83.2355 14.3574 86.0554 14.3574C88.7495 14.3574 89.9567 16.5186 89.9567 18.6799C89.9567 21.6839 87.9573 23.027 85.9768 23.027Z" fill="#001D3D"/>
<path d="M146.54 10.5693C146.54 9.1552 146.999 8.74457 148.583 8.74457H149.045V5.34839H148.583C144.471 5.34839 142.557 7.00634 142.557 10.5631V10.9058H140.824V14.2495H142.563V26.4572H146.546V14.2495H149.265V10.912H146.546L146.54 10.5693Z" fill="#001D3D"/>
<path d="M155.964 10.9119H152.006V26.4571H155.964V10.9119Z" fill="#001D3D"/>
<path d="M154.012 5.40687C153.534 5.40197 153.066 5.53658 152.667 5.79359C152.268 6.0506 151.955 6.41841 151.769 6.85028C151.583 7.28215 151.532 7.75858 151.622 8.21904C151.712 8.6795 151.94 9.10321 152.276 9.43631C152.612 9.76941 153.041 9.99687 153.509 10.0898C153.977 10.1827 154.463 10.1369 154.904 9.95818C155.346 9.77946 155.723 9.47589 155.989 9.08604C156.254 8.6962 156.395 8.23769 156.395 7.76876C156.398 7.45976 156.339 7.15319 156.221 6.86677C156.103 6.58035 155.928 6.31978 155.707 6.10012C155.485 5.88047 155.222 5.7061 154.932 5.58711C154.641 5.46811 154.33 5.40685 154.015 5.40687" fill="#001D3D"/>
<path d="M166.571 10.9027C165.161 10.8884 163.786 11.3347 162.663 12.1716V10.9119H158.705V26.4572H162.663V17.9482C162.663 15.6573 163.814 14.3977 165.904 14.3977C167.995 14.3977 169.12 15.6573 169.12 17.9482V26.4572H173.056V17.5036C173.056 13.49 170.513 10.9027 166.577 10.9027" fill="#001D3D"/>
<path d="M114.898 10.9026C113.912 10.8943 112.936 11.1104 112.049 11.5341C111.162 11.9578 110.386 12.5776 109.783 13.3448C108.649 11.7825 106.769 10.9026 104.511 10.9026C103.11 10.8902 101.744 11.3367 100.629 12.1715V10.9119H96.6837V26.4571H100.642V17.9481C100.642 15.6573 101.792 14.3976 103.883 14.3976C105.973 14.3976 107.099 15.6573 107.099 17.9481V26.4571H111.031V17.9481C111.031 15.6573 112.182 14.3976 114.273 14.3976C116.363 14.3976 117.489 15.6573 117.489 17.9481V26.4571H121.418V17.5035C121.418 13.4899 118.865 10.9026 114.911 10.9026" fill="#001D3D"/>
<path d="M132 10.9026C127.458 10.9026 124.16 14.1722 124.16 18.6799C124.16 23.277 127.329 26.4849 131.868 26.4849C136.489 26.4849 139.844 23.203 139.844 18.6799C139.844 14.1567 136.546 10.9026 131.984 10.9026M131.874 23.027C130.067 23.027 128.133 21.8846 128.133 18.6799C128.133 16.6885 129.133 14.3574 131.953 14.3574C134.647 14.3574 135.854 16.5186 135.854 18.6799C135.854 21.6839 133.855 23.027 131.874 23.027Z" fill="#001D3D"/>
</g>
<defs>
<clipPath id="clip0_1_911">
<rect width="172.267" height="30.6058" fill="white" transform="translate(0.783325 0.618408)"/>
</clipPath>
</defs>
</svg>
