<svg width="12" height="12" viewBox="0 0 12 12" fill="none" xmlns="http://www.w3.org/2000/svg">
<path fill-rule="evenodd" clip-rule="evenodd" d="M5.31748 7.6003V11.3935H6.38463V7.76461L8.19585 10.8954L9.12003 10.3629L7.26168 7.15066L10.4802 9.00508L11.0137 8.08278L7.91951 6.29994L11.5373 6.29994V5.22762L7.68352 5.22762L11.0145 3.30835L10.481 2.38604L7.26058 4.24156L9.11949 1.02836L8.19531 0.495866L6.38463 3.62571V0H5.31748V3.79002L3.41173 0.495846L2.48755 1.02834L5.18741 5.69516L2.48701 10.3629L3.41119 10.8954L5.31748 7.6003ZM0.844098 2.53026L2.42405 5.22762L0.165283 5.22762V6.29994L2.32714 6.29994L0.842655 8.86594L1.76683 9.39844L3.92156 5.6739L1.76539 1.99281L0.844098 2.53026Z" fill="#ADF08D"/>
</svg>
