<svg width="43" height="43" viewBox="0 0 43 43" fill="none" xmlns="http://www.w3.org/2000/svg">
<rect x="1.97998" y="1.2627" width="40" height="40" rx="4" stroke="white" stroke-opacity="0.11" stroke-width="2"/>
<path d="M21.9849 17.7686C23.8306 17.7686 25.354 19.292 25.354 21.1377C25.354 23.0127 23.8306 24.5068 21.9849 24.5068C20.1099 24.5068 18.6157 23.0127 18.6157 21.1377C18.6157 19.292 20.1099 17.7686 21.9849 17.7686ZM21.9849 23.335C23.186 23.335 24.1528 22.3682 24.1528 21.1377C24.1528 19.9365 23.186 18.9697 21.9849 18.9697C20.7544 18.9697 19.7876 19.9365 19.7876 21.1377C19.7876 22.3682 20.7837 23.335 21.9849 23.335ZM26.2622 17.6514C26.2622 18.0908 25.9106 18.4424 25.4712 18.4424C25.0317 18.4424 24.6802 18.0908 24.6802 17.6514C24.6802 17.2119 25.0317 16.8604 25.4712 16.8604C25.9106 16.8604 26.2622 17.2119 26.2622 17.6514ZM28.4888 18.4424C28.5474 19.5264 28.5474 22.7783 28.4888 23.8623C28.4302 24.917 28.1958 25.8252 27.4341 26.6162C26.6724 27.3779 25.7349 27.6123 24.6802 27.6709C23.5962 27.7295 20.3442 27.7295 19.2603 27.6709C18.2056 27.6123 17.2974 27.3779 16.5063 26.6162C15.7446 25.8252 15.5103 24.917 15.4517 23.8623C15.3931 22.7783 15.3931 19.5264 15.4517 18.4424C15.5103 17.3877 15.7446 16.4502 16.5063 15.6885C17.2974 14.9268 18.2056 14.6924 19.2603 14.6338C20.3442 14.5752 23.5962 14.5752 24.6802 14.6338C25.7349 14.6924 26.6724 14.9268 27.4341 15.6885C28.1958 16.4502 28.4302 17.3877 28.4888 18.4424ZM27.0825 25.0049C27.4341 24.1553 27.3462 22.1045 27.3462 21.1377C27.3462 20.2002 27.4341 18.1494 27.0825 17.2705C26.8481 16.7139 26.4087 16.2451 25.8521 16.04C24.9731 15.6885 22.9224 15.7764 21.9849 15.7764C21.0181 15.7764 18.9673 15.6885 18.1177 16.04C17.5317 16.2744 17.0923 16.7139 16.8579 17.2705C16.5063 18.1494 16.5942 20.2002 16.5942 21.1377C16.5942 22.1045 16.5063 24.1553 16.8579 25.0049C17.0923 25.5908 17.5317 26.0303 18.1177 26.2646C18.9673 26.6162 21.0181 26.5283 21.9849 26.5283C22.9224 26.5283 24.9731 26.6162 25.8521 26.2646C26.4087 26.0303 26.8774 25.5908 27.0825 25.0049Z" fill="#ABB0BA"/>
</svg>
