<svg width="34" height="21" viewBox="0 0 34 21" fill="none" xmlns="http://www.w3.org/2000/svg">
<path d="M20.394 14.9033C20.7065 15.0596 20.9409 15.4111 20.9409 15.8018C20.9409 15.8408 20.9409 15.9189 20.9409 15.9971L20.0034 20.0596C19.8862 20.4893 19.5347 20.7627 19.105 20.7627C9.06592 20.7627 0.97998 12.6768 0.97998 2.6377C0.97998 2.20801 1.25342 1.85645 1.68311 1.73926L5.74561 0.801758C5.82373 0.801758 5.90186 0.762695 5.94092 0.762695C6.33154 0.762695 6.68311 0.99707 6.83936 1.34863L8.71436 5.72363C8.75342 5.84082 8.79248 5.95801 8.79248 6.0752C8.79248 6.3877 8.63623 6.66113 8.44092 6.81738L6.05811 8.77051C7.50342 11.8174 9.92529 14.2393 12.9722 15.6846L14.9253 13.3018C15.0815 13.1064 15.355 12.9502 15.6284 12.9502C15.7847 12.9502 15.9019 12.9893 16.019 13.0283L20.394 14.9033Z" fill="#ADF08D"/>
</svg>
