<svg width="34" height="21" viewBox="0 0 34 21" fill="none" xmlns="http://www.w3.org/2000/svg">
<path d="M19.105 3.2627C20.1206 3.2627 20.98 4.12207 20.98 5.1377V16.3877C20.98 17.4424 20.1206 18.2627 19.105 18.2627H2.85498C1.80029 18.2627 0.97998 17.4424 0.97998 16.3877V5.1377C0.97998 4.12207 1.80029 3.2627 2.85498 3.2627H19.105ZM19.105 5.1377H2.85498V6.73926C3.71436 7.48145 5.12061 8.5752 8.08936 10.9189C8.75342 11.4268 10.0425 12.6768 10.98 12.6377C11.8784 12.6768 13.1675 11.4268 13.8315 10.9189C16.8003 8.5752 18.2065 7.48145 19.105 6.73926V5.1377ZM2.85498 16.3877H19.105V9.16113C18.2065 9.86426 16.9175 10.8799 15.0034 12.4033C14.105 13.0674 12.6206 14.5518 10.98 14.5127C9.30029 14.5518 7.77686 13.0674 6.91748 12.4033C5.00342 10.8799 3.71436 9.86426 2.85498 9.16113V16.3877Z" fill="#ADF08D"/>
</svg>
